<?xml version="1.0"?>
<svg width="612.001" height="612.001" xmlns="http://www.w3.org/2000/svg">

 <g>
  <title>background</title>
  <rect fill="none" id="canvas_background" height="402" width="582" y="-1" x="-1"/>
 </g>
 <g>
  <title>Layer 1</title>
  <g id="svg_1">
   <path fill="#cccccc" id="svg_2" d="m589.333008,276.03299c-11.234009,-3.756012 -89.377991,-20.834 -89.377991,-20.834s-144.860016,-82.375 -162.244995,-82.375s-136.639008,0.052994 -136.639008,0.052994c-29.137009,0 -53.487015,22.203003 -81.680008,47.909012c-13.287003,12.112 -27.953003,25.442001 -44.130005,37.298996l-60.248997,8.010986c-8.706005,2.776031 -15.012005,10.922028 -15.012005,20.547028l0,69.029999c0,11.912994 9.656,21.570984 21.57,21.570984l41.401001,0c3.007004,34.650024 32.153,61.932007 67.57,61.932007c35.414993,0 64.563004,-27.28299 67.569992,-61.931l197.687012,0c3.006989,34.649994 32.152985,61.931 67.569977,61.931s64.563049,-27.28299 67.570007,-61.931l34.013,0c26.950012,0 40.119019,-11.639984 43.426025,-22.565979c8.362,-27.649017 2.346985,-71.494019 -19.044006,-78.646027zm-458.792007,130.447021c-19.379997,0 -35.147995,-15.765991 -35.147995,-35.145996s15.765999,-35.14801 35.147995,-35.14801c19.380005,0 35.145996,15.766022 35.145996,35.14801c0.001007,19.379974 -15.765991,35.145996 -35.145996,35.145996zm130.466995,-151.279007l-117.873993,0c8.526001,-6.735992 16.408997,-13.886002 23.671005,-20.505005c19.085999,-17.401993 35.569992,-32.431992 55.293991,-32.431992c0,0 17.850006,-0.007996 38.910004,-0.016998l0,52.953995l-0.001007,0zm28.703003,-52.965012c14.588013,-0.005005 27.59201,-0.009003 34.115997,-0.009003c16.244995,0 82.13501,38.264008 106.864014,52.975006l-140.980011,0l0,-52.966003l0,0zm173.656006,204.244019c-19.380005,0 -35.145996,-15.765991 -35.145996,-35.145996s15.765991,-35.14801 35.145996,-35.14801c19.380005,0 35.14801,15.766022 35.14801,35.14801c0,19.379974 -15.768005,35.145996 -35.14801,35.145996z"/>
  </g>
  <g id="svg_3"/>
  <g id="svg_4"/>
  <g id="svg_5"/>
  <g id="svg_6"/>
  <g id="svg_7"/>
  <g id="svg_8"/>
  <g id="svg_9"/>
  <g id="svg_10"/>
  <g id="svg_11"/>
  <g id="svg_12"/>
  <g id="svg_13"/>
  <g id="svg_14"/>
  <g id="svg_15"/>
  <g id="svg_16"/>
  <g id="svg_17"/>
 </g>
</svg>