<?xml version="1.0"?>
<svg width="492" height="492" xmlns="http://www.w3.org/2000/svg">

 <g>
  <title>background</title>
  <rect fill="none" id="canvas_background" height="402" width="582" y="-1" x="-1"/>
 </g>
 <g>
  <title>Layer 1</title>
  <g id="svg_1">
   <g id="svg_2">
    <path id="svg_3" fill="#cccccc" d="m370.5,254c-14.666992,-11.332993 -36.666992,-20.667007 -66,-28l-23,-5l0,-97c0.666992,0.667 1.333008,1 2,1s1,0.333 1,1c19.334015,9.332993 29.667999,25.332993 31,48l77,0c-1.333008,-40 -16.333008,-70.667 -45,-92c-18.666992,-14 -40.666992,-23.333 -66,-28l0,-54l-71,0l0,52c-33.332993,4 -59.667007,14.667 -79,32c-25.333,22.667 -38,51.334 -38,86c0,37.332993 13,65 39,83c14,10 40,19.333008 78,28l0,104c-14,-4 -24.667007,-10.333008 -32,-19c-8,-9.333008 -13,-22 -15,-38l-76,0c0,39.333008 14.333,70.333008 43,93c20.667007,16 47.332993,26.333008 80,31l0,40l71,0l0,-39c34.666992,-4.666992 62.333008,-15.666992 83,-33c26.666992,-23.333008 40,-52.666992 40,-88c0,-34 -11.333008,-60 -34,-78zm-160,-50c-11.332993,-3.332993 -19.332993,-6.332993 -24,-9c-12.667007,-6.667007 -19,-17 -19,-31c0,-15.332993 6.332993,-27 19,-35c6.667007,-4 14.667007,-7.333 24,-10l0,85zm83,179c-3.333008,1.333008 -7.333008,2.333008 -12,3l0,-89c12.666992,4 22.333008,8 29,12c11.333008,7.333008 17,17.333008 17,30c0,21.333008 -11.333008,36 -34,44z"/>
   </g>
  </g>
  <g id="svg_4"/>
  <g id="svg_5"/>
  <g id="svg_6"/>
  <g id="svg_7"/>
  <g id="svg_8"/>
  <g id="svg_9"/>
  <g id="svg_10"/>
  <g id="svg_11"/>
  <g id="svg_12"/>
  <g id="svg_13"/>
  <g id="svg_14"/>
  <g id="svg_15"/>
  <g id="svg_16"/>
  <g id="svg_17"/>
  <g id="svg_18"/>
 </g>
</svg>