<?xml version="1.0"?>
<svg width="202.614" height="202.614" xmlns="http://www.w3.org/2000/svg">

 <g>
  <title>background</title>
  <rect fill="none" id="canvas_background" height="402" width="582" y="-1" x="-1"/>
 </g>
 <g>
  <title>Layer 1</title>
  <g id="svg_1">
   <g id="svg_2">
    <g id="svg_3">
     <path id="svg_4" fill="#cccccc" d="m177.910004,55.376999l-22.589005,0l0,-1.368c-0.009995,-29.758999 -24.229996,-54.008999 -54.018997,-54.008999c-29.799004,0 -54.010002,24.25 -54.010002,54.008999l0,1.368l-22.587999,0l-13.209001,147.237l179.623988,0l-13.208984,-147.237l0,0zm-76.608002,-48.752999c19.686996,0 36.619003,12.105 43.761002,29.231999c-9.447998,-14.136999 -25.5,-23.477999 -43.761002,-23.477999c-18.231003,0 -34.313004,9.34 -43.77,23.506998c7.180996,-17.155998 24.103001,-29.260998 43.77,-29.260998zm-44.005001,48.752999c4.406002,-20.263 22.480999,-35.485001 44.023998,-35.485001c21.582001,0 39.617996,15.222 44.024002,35.485001l-88.048,0z"/>
    </g>
   </g>
  </g>
  <g id="svg_5"/>
  <g id="svg_6"/>
  <g id="svg_7"/>
  <g id="svg_8"/>
  <g id="svg_9"/>
  <g id="svg_10"/>
  <g id="svg_11"/>
  <g id="svg_12"/>
  <g id="svg_13"/>
  <g id="svg_14"/>
  <g id="svg_15"/>
  <g id="svg_16"/>
  <g id="svg_17"/>
  <g id="svg_18"/>
  <g id="svg_19"/>
 </g>
</svg>