<?xml version="1.0"?>
<svg width="469.962" height="469.962" xmlns="http://www.w3.org/2000/svg">

 <g>
  <title>background</title>
  <rect fill="none" id="canvas_background" height="402" width="582" y="-1" x="-1"/>
 </g>
 <g>
  <title>Layer 1</title>
  <g id="svg_1">
   <g id="svg_2">
    <path id="svg_3" fill="#cccccc" d="m419.303986,232.220993c0.772003,0.332993 1.446991,0.779999 2.145996,1.203003l6.080017,-13.94101c-0.788025,-0.227997 -1.577026,-0.414993 -2.348999,-0.755997c-9.315002,-4.063995 -13.567017,-14.90799 -9.51001,-24.214996l-34.311005,-14.964996l37.399994,52.501999c0.179016,0.074997 0.366028,0.098999 0.544006,0.171997z"/>
    <path id="svg_4" fill="#cccccc" d="m9.535,242.195007l208.181004,90.779999l-127.099007,-178.414001l-4.714996,-6.617004l6.616997,-4.714996c4.609001,-3.283997 5.690002,-9.714005 2.405998,-14.322998l-4.714996,-6.625l6.616997,-4.715004l11.989998,-8.542999l6.625,-4.714996l4.715004,6.616997c1.926003,2.698997 5.056,4.316002 8.380997,4.316002c2.138,0 4.194,-0.657997 5.942001,-1.910004c2.235001,-1.592995 3.714996,-3.959 4.169998,-6.665001c0.455002,-2.706993 -0.171005,-5.421997 -1.763992,-7.656998l-4.715012,-6.616997l6.617004,-4.715004l11.990005,-8.542999l0.121994,-0.088997l-58.997993,-25.726006c-3.015999,6.917 -9.778999,11.046997 -16.875,11.046997c-2.455002,0 -4.949997,-0.495998 -7.348,-1.535995l-5.885002,13.492996c9.315002,4.064003 13.575005,14.900002 9.510002,24.215004c-3.015999,6.917 -9.778999,11.046997 -16.875,11.046997c-2.455002,0 -4.950001,-0.496002 -7.348,-1.535995l-5.885002,13.492996c9.315002,4.064003 13.575001,14.900002 9.510002,24.215004c-3.016003,6.916992 -9.778999,11.046997 -16.875,11.046997c-2.455002,0 -4.950001,-0.496002 -7.348001,-1.535995l-5.885,13.492996c9.315001,4.063995 13.575001,14.899994 9.51,24.214996c-3.016001,6.917007 -9.778999,11.046997 -16.875,11.046997c-2.455,0 -4.95,-0.496002 -7.348,-1.535995l-5.885,13.492996c9.34,4.056 13.599,14.900009 9.535,24.215012z"/>
    <path id="svg_5" fill="#cccccc" d="m139.194,119.957001c-3.235001,2.308998 -6.966003,3.414001 -10.656998,3.414001c-5.747002,0 -11.413002,-2.681999 -14.997002,-7.722l-11.989998,8.534996c5.892998,8.275002 3.966995,19.761009 -4.307999,25.66201l134.959,189.445007l9.168991,12.867981l9.161011,12.859009l51.656982,72.515015c3.235016,-2.309021 6.966003,-3.414001 10.657013,-3.414001c5.747009,0 11.412994,2.681976 14.997009,7.721985c0.487976,0.683014 0.837006,1.414001 1.218994,2.138l12.388,-8.828003c-0.561005,-0.592987 -1.138,-1.17099 -1.626007,-1.852997c-5.893005,-8.274994 -3.96701,-19.760986 4.308014,-25.661987c3.234985,-2.309021 6.966003,-3.414001 10.656982,-3.414001c5.747009,0 11.412994,2.682007 14.997009,7.721985c0.488007,0.683014 0.837006,1.414001 1.218994,2.138l12.388,-8.828003c-0.561005,-0.592987 -1.138,-1.17099 -1.626007,-1.852997c-5.892975,-8.274994 -3.96698,-19.760986 4.308014,-25.653992c3.234985,-2.30899 6.966003,-3.414001 10.656982,-3.414001c5.747009,0 11.413025,2.682007 14.997009,7.722015c0.488007,0.682983 0.837006,1.413971 1.218994,2.13797l12.388,-8.827972c-0.561005,-0.593018 -1.138,-1.171021 -1.625977,-1.853027c-5.893005,-8.274994 -3.96701,-19.760986 4.307983,-25.653992c3.235016,-2.30899 6.966003,-3.414001 10.657013,-3.414001c5.746979,0 11.412994,2.682007 14.996979,7.722015c0.488007,0.682983 0.837006,1.414001 1.219025,2.138l12.388,-8.828003c-0.561005,-0.593018 -1.138,-1.17099 -1.626007,-1.852997c-5.893005,-8.274994 -3.96701,-19.761017 4.307983,-25.654022l-41.983978,-58.931976l-2.910004,-4.081009l-0.390015,-0.544998l-10.834991,-15.209l-5.690002,-7.990005l-41.30899,-57.988998l-9.161011,-12.858994l-9.169006,-12.867996l-83.454987,-117.205017c-3.234985,2.308998 -6.966003,3.414001 -10.656998,3.414001c-5.747009,0 -11.41301,-2.682001 -14.996994,-7.722002l-11.990005,8.543001c5.893005,8.274998 3.966995,19.760998 -4.307999,25.653999c-3.235001,2.308998 -6.966003,3.414001 -10.656998,3.414001c-5.747009,0 -11.41301,-2.682003 -14.997009,-7.722l-11.98999,8.542999c2.868988,4.031998 3.852997,8.827995 3.185989,13.362999c-0.397995,2.698997 -1.414001,5.275002 -2.966995,7.575996c-1.194992,1.780006 -2.673996,3.406006 -4.528,4.723007c-0.731995,0.519997 -1.552994,0.764 -2.324997,1.161995c-2.658005,1.374001 -5.471008,2.260002 -8.332001,2.260002c-5.746994,0 -11.412994,-2.681999 -14.996994,-7.722l-11.990005,8.542999c5.886993,8.25 3.960983,19.744003 -4.314011,25.637001z"/>
   </g>
  </g>
  <g id="svg_6"/>
  <g id="svg_7"/>
  <g id="svg_8"/>
  <g id="svg_9"/>
  <g id="svg_10"/>
  <g id="svg_11"/>
  <g id="svg_12"/>
  <g id="svg_13"/>
  <g id="svg_14"/>
  <g id="svg_15"/>
  <g id="svg_16"/>
  <g id="svg_17"/>
  <g id="svg_18"/>
  <g id="svg_19"/>
  <g id="svg_20"/>
 </g>
</svg>