<?xml version="1.0"?>
<svg width="512" height="512" xmlns="http://www.w3.org/2000/svg">

 <g>
  <title>background</title>
  <rect fill="none" id="canvas_background" height="402" width="582" y="-1" x="-1"/>
 </g>
 <g>
  <title>Layer 1</title>
  <g id="svg_1">
   <g id="svg_2">
    <g id="svg_3">
     <path id="svg_4" fill="#cccccc" d="m471,330l0,82l41,0l0,-123l-471,0l0,-168c0,-5.335999 -2,-10.168999 -6,-14.5c-4,-4.333 -8.833,-6.5 -14.5,-6.5s-10.5,2.167 -14.5,6.5s-6,9.167 -6,14.5l0,291l41,0l0,-82l430,0z"/>
     <path id="svg_5" fill="#cccccc" d="m105.5,205c10.333,0 19.333,-3.667007 27,-11c7.667007,-7.334 11.5,-16.167999 11.5,-26.5c0,-10.335007 -3.832993,-19.167999 -11.5,-26.5c-7.667,-7.332993 -16.667,-11 -27,-11s-19.167,3.667007 -26.5,11s-11,16.167007 -11,26.5s3.667,19.167007 11,26.5c7.333,7.332993 16.167,11 26.5,11z"/>
     <path id="svg_6" fill="#cccccc" d="m512,258l0,-50c0,-8 -2.833008,-14.5 -8.5,-19.5c-5.670013,-5 -12.837006,-8.167007 -21.5,-9.5l-297,-29l-2,0c-5.332993,0 -9.832993,1.832993 -13.5,5.5s-5.5,8.167007 -5.5,13.5l0,58l-76,0c-12.667,0 -19,5.167007 -19,15.5s6.333,15.5 19,15.5l424,0z"/>
    </g>
   </g>
  </g>
  <g id="svg_7"/>
  <g id="svg_8"/>
  <g id="svg_9"/>
  <g id="svg_10"/>
  <g id="svg_11"/>
  <g id="svg_12"/>
  <g id="svg_13"/>
  <g id="svg_14"/>
  <g id="svg_15"/>
  <g id="svg_16"/>
  <g id="svg_17"/>
  <g id="svg_18"/>
  <g id="svg_19"/>
  <g id="svg_20"/>
  <g id="svg_21"/>
 </g>
</svg>