<?xml version="1.0"?>
<svg width="611.996" height="611.996" xmlns="http://www.w3.org/2000/svg">

 <g>
  <title>background</title>
  <rect fill="none" id="canvas_background" height="402" width="582" y="-1" x="-1"/>
 </g>
 <g>
  <title>Layer 1</title>
  <g id="svg_1">
   <g id="svg_2">
    <path fill="#cccccc" id="svg_3" d="m588.630005,113.193001l-374.818008,-79.322002c-15.858002,-3.355 -31.576004,6.875999 -34.931,22.734001l-7.121002,45.761997l432.477005,91.519005l7.120972,-45.762009c3.355042,-15.85199 -6.869995,-31.574989 -22.727966,-34.930992z"/>
    <path fill="#cccccc" id="svg_4" d="m431.009003,203.591003c-4.377991,-15.766006 -20.854004,-25.085007 -36.61499,-20.714005l-71.154022,19.753006l-167.742004,-35.5l-18.447998,87.165009l-115.263988,31.991974c-15.76,4.372009 -25.079,20.847992 -20.708,36.609009l64.957996,234.078003c4.378006,15.76001 20.855003,25.084961 36.615005,20.708008l372.608002,-103.403015c15.76001,-4.377991 25.07901,-20.847992 20.708008,-36.61499l-11.149994,-40.184021l41.789001,8.835022c15.857971,3.360992 31.575989,-6.870026 34.930969,-22.727997l26.439026,-124.937012l-150.526001,-31.852997l-6.44101,-23.205994zm43.031006,118.967987l9.214996,-43.552002c1.384003,-6.520996 7.850006,-10.72699 14.369995,-9.350006l43.552002,9.221008c6.526978,1.384003 10.733032,7.842987 9.356018,14.369995l-9.215027,43.552002c-1.383972,6.520996 -7.848999,10.733002 -14.369995,9.350006l-43.552002,-9.214996c-6.53299,-1.389008 -10.73999,-7.855011 -9.355988,-14.376007zm-445.770008,-12.912994l103.114994,-28.605988l243.298996,-67.517014l26.181,-7.274002c0.477997,-0.128998 0.955017,-0.190002 1.42099,-0.190002c2.100006,0 4.611023,1.378006 5.345001,4.017014l3.074005,11.069992l9.631012,34.703995l-383.188,106.336014l-12.705,-45.768005c-0.796,-2.872009 0.956001,-5.976013 3.827002,-6.772003zm444.331013,134.494995c0.48999,1.776001 -0.023987,3.244995 -0.545013,4.164001c-0.513977,0.917999 -1.505981,2.118988 -3.281982,2.608002l-372.601021,103.402985c-0.471001,0.129028 -0.955002,0.195984 -1.420998,0.195984c-2.099998,0 -4.611,-1.383972 -5.345001,-4.02301l-37.887997,-136.533966l383.188,-106.34201l23.371002,84.208008l14.52301,52.320007z"/>
    <path fill="#cccccc" id="svg_5" d="m156.378998,453.484009c-1.787994,-6.428986 -8.498993,-10.225006 -14.927994,-8.442993l-43.515007,12.079987c-6.422997,1.782013 -10.224998,8.498993 -8.436996,14.928009l12.073997,43.508972c1.788002,6.429016 8.499001,10.225037 14.928001,8.437012l43.514992,-12.073975c6.429001,-1.782013 10.225006,-8.499023 8.443008,-14.928009l-12.080002,-43.509003z"/>
   </g>
  </g>
  <g id="svg_6"/>
  <g id="svg_7"/>
  <g id="svg_8"/>
  <g id="svg_9"/>
  <g id="svg_10"/>
  <g id="svg_11"/>
  <g id="svg_12"/>
  <g id="svg_13"/>
  <g id="svg_14"/>
  <g id="svg_15"/>
  <g id="svg_16"/>
  <g id="svg_17"/>
  <g id="svg_18"/>
  <g id="svg_19"/>
  <g id="svg_20"/>
 </g>
</svg>