<?xml version="1.0"?>
<svg width="50.998" height="50.998" xmlns="http://www.w3.org/2000/svg">

 <g>
  <title>background</title>
  <rect fill="none" id="canvas_background" height="402" width="582" y="-1" x="-1"/>
 </g>
 <g>
  <title>Layer 1</title>
  <g id="svg_1">
   <g id="svg_2">
    <path fill="#cccccc" id="svg_3" d="m38.678001,47.803001c0.535999,0.536999 2.113998,-0.170002 2.651001,-0.707001l0.883999,-0.883999c0.536999,-0.537003 1.243999,-2.115002 0.707001,-2.652l-13.291002,-12.613001l-3.475,3.661001l12.524002,13.195z"/>
    <path fill="#cccccc" id="svg_4" d="m16.639,18.615999c1.729,-3.007 0.815001,-6.652 -1.908,-9.375c-3.217999,-3.216999 -10.166,-6.363999 -13.383,-3.145999c-3.218,3.218 -0.071,10.166 3.146,13.383001c2.671,2.671 6.23,3.602999 9.205,2.004l6.297999,6.638l3.327,-3.157001l-6.684999,-6.347z"/>
    <path fill="#cccccc" id="svg_5" d="m33.012001,18.523001l-26.381001,25.037001c-0.537,0.536999 0.17,2.114998 0.707,2.652l0.884,0.883999c0.401999,0.402 1.386,0.897999 2.081,0.897999c0.233999,0 0.436,-0.057999 0.570999,-0.190998l25.128999,-26.479c0.702003,0.344999 1.437,0.539999 2.181,0.607c2.229,0.203999 4.553001,-0.773001 6.422001,-2.642c6.336002,-6.335 7.473,-7.73 5.528,-10.171l-7.479,7.168c-0.167,0.167 -0.402,0.268999 -0.639999,0.268999c-0.213001,0 -0.409,-0.080999 -0.554001,-0.226999l-0.200001,-0.198999c-0.146,-0.146001 -0.225998,-0.343 -0.225998,-0.555c0.000999,-0.236 0.101997,-0.471001 0.276001,-0.646l6.788998,-7.965c-0.16,-0.16 -0.313,-0.313 -0.484997,-0.485c-0.291,-0.291 -0.562,-0.563 -0.818001,-0.822l-7.995003,6.82c-0.146,0.148 -0.380997,0.249001 -0.616997,0.249001c-0.213001,0 -0.409,-0.081 -0.554001,-0.227l-0.200001,-0.199c-0.146,-0.146 -0.225998,-0.342999 -0.225998,-0.554999c0.000999,-0.236 0.101997,-0.471001 0.275997,-0.646l7.132,-7.442c-2.300999,-1.672 -3.699001,-0.278 -9.811001,5.833c-2.032997,2.033 -3.009998,4.604 -2.558998,7.002999c0.133999,0.698999 0.386002,1.379999 0.769001,2.031z"/>
   </g>
  </g>
  <g id="svg_6"/>
  <g id="svg_7"/>
  <g id="svg_8"/>
  <g id="svg_9"/>
  <g id="svg_10"/>
  <g id="svg_11"/>
  <g id="svg_12"/>
  <g id="svg_13"/>
  <g id="svg_14"/>
  <g id="svg_15"/>
  <g id="svg_16"/>
  <g id="svg_17"/>
  <g id="svg_18"/>
  <g id="svg_19"/>
  <g id="svg_20"/>
 </g>
</svg>