<?xml version="1.0"?>
<svg width="612.002" height="612.002" xmlns="http://www.w3.org/2000/svg">

 <g>
  <title>background</title>
  <rect fill="none" id="canvas_background" height="402" width="582" y="-1" x="-1"/>
 </g>
 <g>
  <title>Layer 1</title>
  <g id="svg_1">
   <g id="svg_2">
    <path fill="#ffffff" id="svg_3" d="m108.485001,374.479004c4.435997,0 8.927002,-1.25 12.920998,-3.850006l133.784004,-87.185974l116.217987,51.978973c3.108002,1.390015 6.404022,2.067017 9.678009,2.067017c5.839996,0 11.604004,-2.15799 16.069,-6.277008l112.802002,-103.977997l0,18.584c0,13.094009 10.613007,23.709 23.707001,23.709c13.093994,0 23.70697,-10.61499 23.70697,-23.709l0,-72.258011c0,-13.093994 -10.612976,-23.709 -23.70697,-23.709l-72.26001,0c-13.093994,0 -23.707001,10.615005 -23.707001,23.709s10.613007,23.707001 23.707001,23.707001l11.10202,0l-96.003021,88.492981l-113.755005,-50.876984c-3.09198,-1.382996 -6.391998,-2.065002 -9.67598,-2.065002c-4.528992,0 -9.035004,1.298004 -12.945999,3.846008l-144.608009,94.23999c-10.970001,7.14801 -14.069,21.833984 -6.919998,32.80899c4.543999,6.971008 12.137001,10.766022 19.887001,10.766022z"/>
    <path fill="#ffffff" id="svg_4" d="m588.291016,526.830994l-65.302002,0l0,-234.828003c-11.464996,-2.64801 -21.359009,-9.450989 -27.979004,-18.75l-19.437012,17.916992l0,235.661011l-79.024994,0l0,-168.221008c-4.923981,1.696991 -10.139008,2.588013 -15.462982,2.588013c-6.710999,0 -13.223999,-1.390015 -19.357025,-4.132996l-12.596985,-5.634003l0,175.40097l-79.024994,0l0,-210.745972l-12.799011,-5.725006l-34.617004,22.559021l0,193.911957l-79.026993,0l0,-142.411957l-9.320999,6.074982c-7.726997,5.032013 -16.668999,7.693024 -25.860001,7.693024c-4.193001,0 -8.297997,-0.557007 -12.235001,-1.604004l0,130.246002l-48.831009,0l0,-469.367016c0,-13.094002 -10.615002,-23.707001 -23.709,-23.707001c-13.092001,0 -23.707001,10.613998 -23.707001,23.707001l0,493.075024c0,13.093994 10.615,23.70697 23.709,23.70697l564.583969,0c13.093994,0 23.708984,-10.612976 23.708984,-23.70697c0.000061,-13.093018 -10.616943,-23.707031 -23.710938,-23.707031z"/>
   </g>
  </g>
  <g id="svg_5"/>
  <g id="svg_6"/>
  <g id="svg_7"/>
  <g id="svg_8"/>
  <g id="svg_9"/>
  <g id="svg_10"/>
  <g id="svg_11"/>
  <g id="svg_12"/>
  <g id="svg_13"/>
  <g id="svg_14"/>
  <g id="svg_15"/>
  <g id="svg_16"/>
  <g id="svg_17"/>
  <g id="svg_18"/>
  <g id="svg_19"/>
 </g>
</svg>