<?xml version="1.0"?>
<svg width="487.015" height="487.015" xmlns="http://www.w3.org/2000/svg">

 <g>
  <title>background</title>
  <rect fill="none" id="canvas_background" height="402" width="582" y="-1" x="-1"/>
 </g>
 <g>
  <title>Layer 1</title>
  <g id="svg_1">
   <path fill="#ffffff" id="svg_2" d="m484.681,210.470001c-4.497986,-40.878998 -19.541016,-78.225998 -43.868988,-111.5c-39.194,-53.577999 -91.611023,-86.335999 -157.067017,-97.739998c-13.050995,-2.271003 -26.39801,-2.862003 -39.608002,-4.230003c-0.878006,0 -1.75,0 -2.621994,0c-12.34201,1.351 -24.737,2.246 -36.993011,4.129c-125.856987,19.312999 -216.852988,138.482999 -202.465988,265.265989c6.865,60.514984 32.214,112.121002 77.214996,153.278015c53.503998,48.940979 117.061996,69.924988 189.118011,63.078979c55.300995,-5.270996 103.556976,-27.572998 143.329987,-66.488983c57.76001,-56.561005 81.781006,-125.699005 72.962006,-205.792999zm-51.281006,124.60199c-6.153015,-10.729004 -13.920013,-25.687988 -17.389984,-38.455017c-5.042023,-18.536987 -17.147003,-0.626984 -18.15802,11.479004s-9.078003,21.184021 -25.221008,3.025024c-16.142975,-18.157013 -19.168976,-14.126007 -24.210999,-14.126007s-14.121002,12.104004 -12.10498,68.600983c1.436981,40.335022 17.348999,46.736023 27.746002,49.662018c-19.305023,13.263977 -41.488007,23.713989 -66.38501,30.037994c-95.156998,24.151001 -192.289001,-19.705994 -237.671009,-106.837006c-42.279999,-81.184998 -21.681,-173.052994 21.299,-223.615997c1.155998,9.094002 2.288002,17.263 3.230003,25.464005c2.561996,22.389999 0.628998,44.487 -3.939003,66.496002c-0.975998,4.690002 -0.636002,10.033005 0.628998,14.645996c0.688004,2.518997 4.486,5.494003 7.110001,5.742996c2.066002,0.201004 5.671005,-3.07399 6.508003,-5.53299c1.513,-4.397003 1.574997,-9.326996 2.040001,-14.053009c0.334,-3.334 0.339996,-6.71199 0.57,-11.942001c3.412994,2.766006 5.902,4.444 7.971001,6.525009c5.271996,5.307999 10.603996,10.591995 15.415001,16.298996c2.124992,2.533005 4.314995,6.078995 4.255997,9.128998c-0.133003,6.525009 2.729996,10.962006 6.226997,16.085999c3.886002,5.697998 5.636002,12.862015 8.136002,19.459c1.046005,2.765991 1.264999,5.886993 2.511993,8.546997c2.66301,5.697021 6.688004,9.598999 13.60701,10.024017c7.278992,0.460999 10.003998,3.28598 11.050003,10.733002c-1.862,0.212982 -3.715012,0.461975 -5.574005,0.632996c-8.878006,0.846008 -13.278,4.923981 -12.927002,13.878998c0.694,17.785004 7.110001,33.324005 20.311996,45.678009c3.638,3.41098 7.503006,6.578979 11.03801,10.071991c8.07399,7.973999 10.890991,17.34198 7.009995,28.354004c-1.858994,5.248993 -4.406998,10.402985 -5.231003,15.829987c-0.838989,5.514008 -0.845001,11.507996 0.432007,16.903992c1.324005,5.615021 0.755997,17.897003 6.554993,16.881012c10.258011,-1.803009 16.154007,0.218994 16.952011,-11.265991c0.150986,-2.188019 -0.018005,-2.459015 -0.600006,-4.480011c-3.050003,-10.781006 10.798996,-41.386993 19.108994,-46.96698c7.098999,-4.776001 14.218002,-9.63501 20.652008,-15.244019c9.276001,-8.062012 13.429001,-18.47699 9.530991,-30.605011c-3.667999,-11.413971 0.623001,-19.794983 8.602997,-27.142975c8.140015,-7.489014 13.47702,-16.119019 12.921021,-27.64502c-0.556,-11.526001 -8.098022,-19.848999 -17.927002,-18.665985c-4.806015,0.566986 -9.41301,2.871979 -14.098007,4.449982c-6.867996,2.322998 -13.570999,5.574005 -20.619995,6.83902c-9.880005,1.75 -15.968002,-4.705017 -20.375,-12.542999c-3.546005,-6.30101 -4.714005,-6.785004 -10.87001,-2.860016c-5.192993,3.322021 -10.375992,6.666992 -15.75499,9.670013c-5.588013,3.121002 -8.633011,1.962982 -12.94101,-2.707001c-2.548004,-2.755005 -6.076004,-4.692993 -9.350998,-6.679016c-2.354996,-1.441986 -5.539001,-1.838989 -7.427002,-3.646988c-2.529999,-2.447006 -6.05899,-6.076004 -5.701004,-8.729004c0.417007,-3.11499 4.025009,-7.013992 7.172012,-8.289993c5.422989,-2.199005 11.584991,-2.554001 17.400986,-3.818008c3.097,-0.673996 6.239014,-1.375 9.167007,-2.529999c4.007996,-1.598999 3.839005,-4.231995 0.770996,-6.703003c-1.513,-1.214996 -3.384003,-2.069 -5.207993,-2.802002c-8.866013,-3.569992 -17.781998,-6.983994 -26.643005,-10.567993c-2.201996,-0.884003 -4.371002,-1.970993 -6.347992,-3.263c-5.570999,-3.660995 -6.242004,-7.692001 -1.188004,-12.151993c19.955002,-17.602005 43.263992,-22.756012 63.916,0.62999c6.397995,7.242996 10.737,16.275009 16.778,23.876007c4.751999,5.994003 10.222992,11.621002 16.263,16.246002c2.488998,1.899994 8.085999,2.222992 10.869995,0.696991c4.145996,-2.270004 4.291,-7.444 2.205002,-11.759003c-1.802994,-3.748001 -3.921997,-7.441986 -6.468994,-10.722c-11.733002,-15.116989 -10.92601,-44.575989 12.054993,-56.866989c7.686996,-4.117004 15.440994,-8.453003 19.112015,-19.497009c-4.403015,1.19101 -7.596008,1.959 -10.723022,2.917007c-17.450989,5.404999 -5.301987,-7.613007 2.726013,-9.882996c4.876007,-1.386002 -4.362,-5.122009 -4.362,-5.122009c0.218994,-0.380997 6.13501,-2.069 12.713989,-4.874001c4.527008,-1.923996 9.154999,-4.089996 12.915009,-7.152c2.436005,-1.998001 3.375,-5.816002 4.97699,-8.819c-0.406982,-0.473 -0.803986,-0.933998 -1.21698,-1.406998c-4.611023,0.621002 -9.216003,1.303001 -13.838013,1.823997c-7.832001,0.876999 -9.670013,-0.658997 -10.395996,-8.558998c-0.502991,-5.393997 -6,-8.334 -11.133011,-5.568001c-3.472992,1.883003 -6.475998,4.612999 -9.817993,6.773003c-7.716003,4.998001 -13.485001,3 -16.511993,-5.618004c-1.803009,-5.129997 -4.314011,-6.099998 -9.034012,-3.226997c-2.373993,1.442001 -4.353989,3.548996 -6.76799,4.897003c-3.958008,2.210999 -7.98201,4.429993 -12.23201,5.931999c-4.139999,1.465996 -9.125992,2.529999 -11.942993,-2.010002c-3.026001,-4.882004 -0.380997,-9.635002 3.434998,-12.695999c4.742996,-3.806999 10.210999,-6.762001 15.548004,-9.752998c7.602005,-4.278999 15.651993,-7.838005 22.992996,-12.504002c5.388,-3.438 7.742996,-9.041 6,-15.652c-1.472,-5.580002 -5.205002,-7.468002 -10.373993,-4.909c-4.268005,2.118999 -7.997009,5.434998 -12.386002,7.142998c-3.207001,1.229 -7.203003,1.242001 -10.646011,0.636002c-1.270996,-0.224998 -2.621994,-3.747002 -2.656998,-5.792c-0.024002,-1.179001 2.367004,-3.227001 3.891998,-3.476002c10.604004,-1.651997 21.255005,-3.049999 31.921005,-4.264999c1.410004,-0.153999 3.529007,0.718002 4.412994,1.844002c7.045013,8.892998 16.875,13.208 27.216019,16.286999c8.687988,2.580002 9.946991,1.351002 11.141998,-7.764c11.158997,-2.626999 22.501984,-7.802998 33.731995,-0.720997c6.22998,3.920998 11.910004,8.917 17.182983,14.090996c1.307007,1.288002 0.509003,5.271999 -0.117981,7.838001c-0.826996,3.447998 -2.736023,6.635002 -3.617004,10.083c-1.701996,6.681999 2.618011,11.903999 9.522003,11.794998c2.181,-0.046997 4.355988,-0.493996 6.548981,-0.602997c6.378021,-0.297997 8.641998,2.142998 8.057007,8.583c-0.828003,9.125999 0.69101,10.223 9.899994,8.665001c2.647003,-0.445999 5.70401,0.755997 8.404999,1.702995c1.607025,0.567001 2.854004,2.107002 4.285004,3.188004c8.563995,6.489998 15.113007,4.057999 17.619995,-6.560997c0.271027,-1.156006 0.236023,-2.391006 0.473022,-3.559006c0.992981,-4.764 3.682983,-5.989998 6.897003,-2.603996c6.809998,7.210999 13.198975,14.823997 20.108002,22.685997c-7.424011,6.809006 -7.672028,15.084 -6.028015,23.193008c1.825989,9.020996 -0.549988,16.858002 -4.108002,24.804993c-3.410004,7.613007 -7.156982,15.179001 -9.43399,23.143997c-3.403992,11.955002 0.460999,17.416 12.60199,20.062012c11.584991,2.528992 13.481995,4.857986 13.920013,16.18399c0.584991,15.447998 8.518005,26.110001 22.070984,32.914001c3.009003,1.501007 6.205994,2.641998 9.279022,3.919006c-1.519012,23.813995 -8.316986,48.597992 -19.949005,72.110992z"/>
  </g>
  <g id="svg_3"/>
  <g id="svg_4"/>
  <g id="svg_5"/>
  <g id="svg_6"/>
  <g id="svg_7"/>
  <g id="svg_8"/>
  <g id="svg_9"/>
  <g id="svg_10"/>
  <g id="svg_11"/>
  <g id="svg_12"/>
  <g id="svg_13"/>
  <g id="svg_14"/>
  <g id="svg_15"/>
  <g id="svg_16"/>
  <g id="svg_17"/>
 </g>
</svg>